<svg width="25" height="40" viewBox="0 0 25 40" fill="none" xmlns="http://www.w3.org/2000/svg">
<path d="M24.1209 18.5C18.4654 14.7433 15.614 7.94333 14.2246 1.38208C13.9887 0.460833 13.2199 0 12.4507 0C11.682 0 10.9132 0.460833 10.6769 1.38208C9.28748 7.94375 6.44022 14.7433 0.784728 18.5C0.318507 18.825 0 19.3879 0 19.9975C0 20.6071 0.319346 21.17 0.785147 21.495C6.44064 25.2517 9.28832 32.0567 10.6778 38.6179C10.9136 39.5396 11.6828 40 12.4516 40C13.2204 40 13.9891 39.5392 14.2254 38.6179C15.6148 32.0567 18.4663 25.2517 24.1218 21.495C24.588 21.17 24.9061 20.6071 24.9057 19.9975C24.9057 19.3879 24.5872 18.825 24.1209 18.5Z" fill="#17171D"/>
</svg>
