<svg width="24" height="24" viewBox="0 0 24 24" fill="none" xmlns="http://www.w3.org/2000/svg">
<path d="M8.33329 7.29024C8.3352 7.59446 8.16157 7.85521 7.92213 7.96048C7.69509 8.05996 7.48807 8.19324 7.303 8.35742C7.17231 8.47331 7.04353 8.59693 6.93954 8.73697C6.82793 8.88763 6.73253 9.0547 6.65526 9.22661C6.54269 9.47771 6.45302 9.73944 6.35476 9.99633C6.2918 10.1595 6.22216 10.3189 6.10769 10.4531C6.01038 10.5661 5.88827 10.6434 5.74136 10.6618C5.52577 10.6888 5.35119 10.6019 5.21382 10.4387C5.07168 10.2706 5.00395 10.0639 4.92858 9.86113C4.84368 9.63224 4.77118 9.39659 4.66338 9.18026C4.42012 8.69254 4.06811 8.30333 3.58254 8.04837C3.49 8.00008 3.39651 7.95179 3.30875 7.89578C2.95006 7.67075 2.86802 7.13089 3.25533 6.81025C3.34405 6.73685 3.4528 6.68566 3.55583 6.63158C3.90307 6.44905 4.19117 6.19988 4.42394 5.88021C4.63953 5.58372 4.78263 5.25439 4.89806 4.90864C4.95911 4.72514 5.03352 4.54454 5.11842 4.37167C5.20619 4.19397 5.34451 4.06166 5.54389 4.0153C5.76426 3.96508 5.94551 4.04138 6.09624 4.2017C6.26509 4.38133 6.33855 4.61215 6.41486 4.84007C6.49595 5.08151 6.57608 5.32199 6.69914 5.54605C6.85083 5.8213 7.03589 6.07047 7.27057 6.27811C7.47186 6.45581 7.69699 6.59295 7.93739 6.71174C8.18542 6.83439 8.32756 7.04493 8.33233 7.29024H8.33329ZM5.67172 9.02573C5.68794 8.97358 5.69462 8.94074 5.70797 8.9108C5.8463 8.59596 6.02851 8.3072 6.24124 8.03871C6.44825 7.77699 6.69247 7.55583 6.96816 7.3704C7.00441 7.34625 7.00728 7.32694 6.96912 7.29893C6.7125 7.11543 6.46924 6.91745 6.27654 6.66345C6.14394 6.48865 6.01706 6.30998 5.90068 6.12358C5.81005 5.97775 5.74136 5.8184 5.66314 5.66388C5.37504 6.34475 4.94099 6.90876 4.31995 7.33177C4.9448 7.75381 5.38076 8.32072 5.67172 9.02477V9.02573Z" fill="#17171D"/>
<path d="M8.33329 16.6236C8.3352 16.9278 8.16157 17.1886 7.92213 17.2938C7.69509 17.3933 7.48807 17.5266 7.303 17.6908C7.17231 17.8067 7.04353 17.9303 6.93954 18.0703C6.82793 18.221 6.73253 18.3881 6.65526 18.56C6.54269 18.8111 6.45302 19.0728 6.35476 19.3297C6.2918 19.4929 6.22216 19.6523 6.10769 19.7865C6.01038 19.8995 5.88827 19.9768 5.74136 19.9951C5.52577 20.0221 5.35119 19.9352 5.21382 19.772C5.07168 19.604 5.00395 19.3973 4.92858 19.1945C4.84368 18.9656 4.77118 18.7299 4.66338 18.5136C4.42012 18.0259 4.06811 17.6367 3.58254 17.3817C3.49 17.3334 3.39651 17.2851 3.30875 17.2291C2.95006 17.0041 2.86802 16.4642 3.25533 16.1436C3.34405 16.0702 3.4528 16.019 3.55583 15.9649C3.90307 15.7824 4.19117 15.5332 4.42394 15.2136C4.63953 14.9171 4.78263 14.5877 4.89806 14.242C4.95911 14.0585 5.03352 13.8779 5.11842 13.705C5.20619 13.5273 5.34451 13.395 5.54389 13.3487C5.76426 13.2984 5.94551 13.3747 6.09624 13.535C6.26509 13.7147 6.33855 13.9455 6.41486 14.1734C6.49595 14.4149 6.57608 14.6553 6.69914 14.8794C6.85083 15.1546 7.03589 15.4038 7.27057 15.6115C7.47186 15.7892 7.69699 15.9263 7.93739 16.0451C8.18542 16.1677 8.32756 16.3783 8.33233 16.6236H8.33329ZM5.67172 18.3591C5.68794 18.3069 5.69462 18.2741 5.70797 18.2442C5.8463 17.9293 6.02851 17.6405 6.24124 17.3721C6.44825 17.1103 6.69247 16.8892 6.96816 16.7037C7.00441 16.6796 7.00728 16.6603 6.96912 16.6323C6.7125 16.4488 6.46924 16.2508 6.27654 15.9968C6.14394 15.822 6.01706 15.6433 5.90068 15.4569C5.81005 15.3111 5.74136 15.1518 5.66314 14.9972C5.37504 15.6781 4.94099 16.2421 4.31995 16.6651C4.9448 17.0872 5.38076 17.6541 5.67172 18.3581V18.3591Z" fill="#17171D"/>
<path fill-rule="evenodd" clip-rule="evenodd" d="M13.7757 4.17926C13.913 4.0875 14.1034 4 14.3323 4C14.5612 4 14.7516 4.08744 14.889 4.17922C15.0277 4.27188 15.1432 4.38895 15.235 4.50158C15.416 4.72373 15.5585 4.99475 15.6305 5.22313L15.6345 5.23571L15.6378 5.24847C16.228 7.51091 17.4167 9.76445 19.7074 10.9996L19.7173 11.0049C20.0523 11.1945 20.3332 11.5529 20.3332 11.9991C20.3332 11.9989 20.3332 11.9992 20.3332 11.9991C20.3334 12.4451 20.0527 12.8035 19.7176 12.9931L19.7079 12.9986C17.4173 14.2337 16.2284 16.4888 15.6382 18.7514L15.6348 18.7643L15.6308 18.777C15.5587 19.0053 15.4162 19.2762 15.2352 19.4983C15.1434 19.6109 15.028 19.728 14.8893 19.8206C14.752 19.9124 14.5616 19.9999 14.3327 19.9999C14.1039 19.9999 13.9135 19.9125 13.7761 19.8207C13.6374 19.7281 13.522 19.6111 13.4302 19.4984C13.2491 19.2763 13.1065 19.0053 13.0345 18.7767L13.0305 18.7642L13.0272 18.7514C12.4369 16.4886 11.2497 14.2335 8.95924 12.9985L8.94918 12.9931C8.61501 12.8038 8.33328 12.4457 8.33328 11.9991C8.33328 11.5529 8.61423 11.1946 8.94925 11.005L8.959 10.9995C11.2496 9.76444 12.4366 7.51132 13.0268 5.24848L13.0302 5.23559L13.0342 5.22288C13.1063 4.99463 13.2488 4.7237 13.4298 4.50158C13.5216 4.38898 13.637 4.27192 13.7757 4.17926ZM14.08 5.5271C13.4521 7.9241 12.1462 10.4961 9.4923 11.9302C9.46233 11.9478 9.44275 11.9683 9.4324 11.984C9.42755 11.9913 9.42546 11.9963 9.4246 11.999C9.42547 12.0016 9.42758 12.0066 9.43241 12.0139C9.44285 12.0297 9.46257 12.0503 9.49261 12.068C12.1466 13.5022 13.4525 16.0763 14.0804 18.473C14.1136 18.5722 14.1892 18.7182 14.2832 18.8335C14.3011 18.8555 14.3177 18.8739 14.3327 18.8891C14.3476 18.8739 14.3642 18.8555 14.3821 18.8335C14.4761 18.7182 14.5517 18.5721 14.585 18.4728C15.213 16.0759 16.5207 13.502 19.1746 12.068C19.2045 12.0504 19.2239 12.03 19.2342 12.0144C19.2392 12.0069 19.2412 12.0018 19.242 11.9993C19.2412 11.9967 19.2391 11.9916 19.2341 11.984C19.2237 11.9683 19.2042 11.9478 19.1742 11.9302C16.5203 10.4962 15.2126 7.92411 14.5846 5.52696C14.5514 5.42776 14.4758 5.28168 14.3819 5.16637C14.364 5.14441 14.3473 5.126 14.3324 5.11079C14.3174 5.12601 14.3008 5.14441 14.2829 5.16637C14.189 5.28167 14.1133 5.42777 14.08 5.5271ZM14.4005 5.0543C14.4005 5.05433 14.4 5.0546 14.399 5.05506L14.4005 5.0543ZM14.2645 18.9456C14.2645 18.9456 14.265 18.9453 14.266 18.9449L14.2645 18.9456ZM14.3993 18.9448C14.4003 18.9453 14.4008 18.9456 14.4008 18.9456L14.3993 18.9448Z" fill="#17171D"/>
</svg>
