<svg width="40" height="40" viewBox="0 0 40 40" fill="none" xmlns="http://www.w3.org/2000/svg">
<path d="M29.5638 19.5714C26.4196 17.9201 24.8344 14.9311 24.0619 12.0471C23.9308 11.6421 23.5034 11 23.0758 11C22.6484 11 22.221 11.6421 22.0896 12.0471C21.3172 14.9313 19.7343 17.9201 16.5901 19.5714C16.3309 19.7143 16.1539 19.9617 16.1539 20.2297C16.1539 20.4976 16.3314 20.7451 16.5904 20.8879C19.7345 22.5392 21.3177 25.5304 22.0901 28.4145C22.2212 28.8196 22.6488 29.4615 23.0762 29.4615C23.5036 29.4615 23.931 28.8194 24.0624 28.4145C24.8348 25.5304 26.4201 22.5392 29.5642 20.8879C29.8234 20.7451 30.0003 20.4976 30 20.2297C30 19.9617 29.823 19.7143 29.5638 19.5714Z" fill="#17171D"/>
<path fill-rule="evenodd" clip-rule="evenodd" d="M13.0765 21.7692C12.8479 21.7692 12.6888 21.8695 12.6109 21.9313C12.53 21.9955 12.4751 22.0661 12.4413 22.1147C12.3724 22.2138 12.3209 22.3254 12.2852 22.4109C12.2292 22.5449 12.1718 22.72 12.1492 22.7891L12.1492 22.7891L12.1398 22.8173L12.135 22.8307L12.131 22.8444C11.8793 23.694 11.3887 24.4875 10.4815 24.9182L10.4706 24.9237C10.2348 25.0412 10 25.2824 10 25.615C10 25.9481 10.2354 26.1892 10.4704 26.3064L10.4817 26.3117C11.3887 26.7424 11.8794 27.5367 12.1311 28.3864L12.1351 28.3999L12.1399 28.4131L12.1494 28.442C12.1722 28.5115 12.2292 28.6857 12.2853 28.82C12.3211 28.9054 12.3726 29.017 12.4415 29.1161C12.4753 29.1648 12.5302 29.2353 12.6111 29.2995C12.689 29.3613 12.8481 29.4615 13.0767 29.4615C13.3053 29.4615 13.4644 29.3613 13.5423 29.2995C13.6232 29.2353 13.678 29.1647 13.7119 29.116C13.7807 29.017 13.8323 28.9053 13.868 28.8199C13.924 28.6859 13.9814 28.5107 14.004 28.4417L14.0134 28.4135L14.0182 28.4L14.0222 28.3864C14.2739 27.537 14.7653 26.7426 15.6725 26.3118L15.6834 26.3064C15.9194 26.1888 16.1539 25.9475 16.1538 25.615C16.1538 25.2824 15.9191 25.0411 15.6833 24.9236L15.6723 24.9183C14.7649 24.4875 14.2737 23.6936 14.0221 22.8444L14.0181 22.8309L14.0133 22.8175L14.0038 22.789C13.9811 22.7196 13.924 22.5451 13.8679 22.4109C13.8322 22.3254 13.7806 22.2138 13.7117 22.1147C13.6779 22.066 13.623 21.9954 13.5421 21.9312C13.4641 21.8694 13.305 21.7692 13.0765 21.7692Z" fill="#17171D"/>
<path fill-rule="evenodd" clip-rule="evenodd" d="M13.0765 11C12.8479 11 12.6888 11.1003 12.6109 11.1621C12.53 11.2262 12.4751 11.2968 12.4413 11.3455C12.3724 11.4446 12.3209 11.5562 12.2852 11.6416C12.2292 11.7756 12.1718 11.9508 12.1492 12.0199L12.1492 12.0199L12.1398 12.0481L12.135 12.0615L12.131 12.0752C11.8793 12.9247 11.3887 13.7183 10.4815 14.149L10.4706 14.1544C10.2348 14.2719 10 14.5132 10 14.8458C10 15.1788 10.2354 15.42 10.4704 15.5372L10.4817 15.5425C11.3887 15.9732 11.8794 16.7675 12.1311 17.6171L12.1351 17.6306L12.1399 17.6439L12.1494 17.6727C12.1722 17.7423 12.2292 17.9165 12.2853 18.0507C12.3211 18.1362 12.3726 18.2478 12.4415 18.3469C12.4753 18.3955 12.5302 18.4661 12.6111 18.5303C12.689 18.5921 12.8481 18.6923 13.0767 18.6923C13.3053 18.6923 13.4644 18.592 13.5423 18.5302C13.6232 18.4661 13.678 18.3955 13.7119 18.3468C13.7807 18.2477 13.8323 18.1361 13.868 18.0507C13.924 17.9167 13.9814 17.7415 14.004 17.6724L14.0134 17.6443L14.0182 17.6308L14.0222 17.6171C14.2739 16.7677 14.7653 15.9733 15.6725 15.5426L15.6834 15.5372C15.9194 15.4196 16.1539 15.1782 16.1538 14.8458C16.1538 14.5132 15.9191 14.2718 15.6833 14.1543L15.6723 14.1491C14.7649 13.7183 14.2737 12.9244 14.0221 12.0752L14.0181 12.0616L14.0133 12.0483L14.0038 12.0197C13.9811 11.9504 13.924 11.7758 13.8679 11.6416C13.8322 11.5562 13.7806 11.4445 13.7117 11.3455C13.6779 11.2968 13.623 11.2262 13.5421 11.162C13.4641 11.1002 13.305 11 13.0765 11Z" fill="#17171D"/>
</svg>
